<?xml version="1.0" encoding="UTF-8"?><svg id="Layer_1" xmlns="http://www.w3.org/2000/svg" viewBox="0 0 174 41"><defs><style>.cls-1{fill:#fc0;}.cls-2{fill:#fff;}.cls-3{fill:#3c3c3b;}</style></defs><path class="cls-3" d="M16.74797,22.58663l-1.81313-4.54846H4.73254l-1.81313,4.54846H0L8.23547,2.0882h3.16515l8.26764,20.49843h-2.9203ZM9.83414,4.73148l-4.36437,11.03246h8.69747l-4.3331-11.03246Z"/><path class="cls-3" d="M30.75524,14.62728V2.0882h2.55125v12.47742c0,3.74868,2.02849,6.11584,5.80844,6.11584s5.80844-2.36716,5.80844-6.11584V2.0882h2.55035v12.5078c0,5.1016-2.79699,8.35879-8.35879,8.35879-5.5627,0-8.35969-3.28758-8.35969-8.32752Z"/><path class="cls-3" d="M73.34362,22.58663l-5.22402-8.14433h-4.08735v8.14433h-2.55125V2.0882h8.23637c3.74957,0,6.42324,2.39755,6.42324,6.1775,0,3.68791-2.51997,5.7155-5.31696,5.96125l5.53232,8.35969h-3.01235ZM73.49732,8.26569c0-2.3055-1.65943-3.90327-4.08735-3.90327h-5.37772v7.83693h5.37772c2.42793,0,4.08735-1.62904,4.08735-3.93365Z"/><path class="cls-3" d="M140.36854,22.58663l-5.22402-8.14433h-4.08735v8.14433h-2.55125V2.0882h8.23637c3.74957,0,6.42324,2.39755,6.42324,6.1775,0,3.68791-2.51997,5.7155-5.31696,5.96125l5.53232,8.35969h-3.01235ZM140.52224,8.26569c0-2.3055-1.65943-3.90327-4.08735-3.90327h-5.37772v7.83693h5.37772c2.42793,0,4.08735-1.62904,4.08735-3.93365Z"/><path class="cls-3" d="M171.03264,22.58663l-1.81313-4.54846h-10.2023l-1.81313,4.54846h-2.91941l8.23547-20.49843h3.16515l8.26764,20.49843h-2.9203ZM164.11881,4.73148l-4.36437,11.03246h8.69747l-4.3331-11.03246Z"/><path class="cls-3" d="M27.95182,35.95198h3.04442v.59787h-2.3648v1.32554h2.31731v.59787h-2.31731v1.41376h2.3648v.59787h-3.04442v-4.53292Z"/><path class="cls-3" d="M36.59988,37.00556v3.47934h-.67963v-4.53292h.69986l2.46678,3.39787v-3.39787h.67963v4.53292h-.65912l-2.50752-3.47934Z"/><path class="cls-3" d="M44.84618,35.95198h3.04442v.59787h-2.3648v1.32554h2.31731v.59787h-2.31731v1.41376h2.3648v.59787h-3.04442v-4.53292Z"/><path class="cls-3" d="M54.34357,38.73849h-.84933v1.74641h-.67963v-4.53292h1.90965c.86281,0,1.45422.55741,1.45422,1.39297,0,.81589-.55039,1.25081-1.12803,1.32554l1.16203,1.81441h-.78836l-1.08055-1.74641ZM54.63577,36.54985h-1.14152v1.5902h1.14152c.48942,0,.84258-.31916.84258-.7951,0-.47538-.35316-.7951-.84258-.7951Z"/><path class="cls-3" d="M63.24928,35.87725c.84961,0,1.41376.38772,1.79418.89737l-.55039.31916c-.2582-.3467-.71362-.61136-1.24379-.61136-.94457,0-1.65117.71981-1.65117,1.73967,0,1.01256.7066,1.74641,1.65117,1.74641.50291,0,.93108-.24499,1.14854-.44897v-.81533h-1.45422v-.59787h2.13385v1.66494c-.43492.48268-1.06004.80184-1.82817.80184-1.29773,0-2.35103-.93783-2.35103-2.35103,0-1.41376,1.0533-2.34485,2.35103-2.34485Z"/><path class="cls-3" d="M71.24468,38.58902l-1.77367-2.63704h.78133l1.33201,2.02512,1.31852-2.02512h.78808l-1.76664,2.63704v1.89588h-.67963v-1.89588Z"/><path class="cls-3" d="M85.66665,38.73849h-.84933v1.74641h-.67963v-4.53292h1.90965c.86281,0,1.45422.55741,1.45422,1.39297,0,.81589-.55039,1.25081-1.12803,1.32554l1.16203,1.81441h-.78836l-1.08055-1.74641ZM85.95884,36.54985h-1.14152v1.5902h1.14152c.48942,0,.84258-.31916.84258-.7951,0-.47538-.35316-.7951-.84258-.7951Z"/><path class="cls-3" d="M92.41125,35.95198h3.04442v.59787h-2.36451v1.32554h2.31731v.59787h-2.31731v1.41376h2.36451v.59787h-3.04442v-4.53292Z"/><path class="cls-3" d="M100.48813,39.32287c.30624.33939.7951.63889,1.42725.63889.73385,0,.99233-.37423.99233-.70014,0-.47594-.51639-.61192-1.09404-.76139-.72711-.18993-1.56997-.40064-1.56997-1.32498,0-.74734.65912-1.29127,1.60369-1.29127.70014,0,1.25025.2242,1.65145.63215l-.3939.50291c-.3467-.36693-.82264-.52988-1.31206-.52988-.50291,0-.84904.25792-.84904.63833,0,.40795.48886.53719,1.05302.67991.7406.19723,1.60369.42817,1.60369,1.39297,0,.70688-.48886,1.366-1.71214,1.366-.80859,0-1.40028-.29219-1.78743-.72037l.38716-.52314Z"/><path class="cls-3" d="M108.46387,35.95198h3.04442v.59787h-2.36508v1.32554h2.31731v.59787h-2.31731v1.41376h2.36508v.59787h-3.04442v-4.53292Z"/><path class="cls-3" d="M119.30029,39.54708h-2.22235l-.36693.93783h-.7479l1.80092-4.53292h.84961l1.80092,4.53292h-.74734l-.36693-.93783ZM117.27517,38.9419h1.82789l-.9176-2.39879-.91029,2.39879Z"/><path class="cls-3" d="M126.56129,38.73849h-.84961v1.74641h-.67935v-4.53292h1.90937c.86309,0,1.45422.55741,1.45422,1.39297,0,.81589-.55011,1.25081-1.12775,1.32554l1.16203,1.81441h-.78836l-1.08055-1.74641ZM126.85348,36.54985h-1.1418v1.5902h1.1418c.48942,0,.84286-.31916.84286-.7951,0-.47538-.35344-.7951-.84286-.7951Z"/><path class="cls-3" d="M133.1154,38.22209c0-1.39354,1.03335-2.34485,2.32406-2.34485.89063,0,1.44748.42817,1.80092.95806l-.57764.30624c-.23769-.38097-.68609-.65912-1.22328-.65912-.91704,0-1.62392.71981-1.62392,1.73967,0,1.01256.70688,1.73967,1.62392,1.73967.53719,0,.98559-.27871,1.22328-.65968l.57764.30624c-.36018.52988-.91029.95806-1.80092.95806-1.29071,0-2.32406-.95131-2.32406-2.34429Z"/><path class="cls-3" d="M145.18127,38.45978h-2.5078v2.02512h-.67935v-4.53292h.67935v1.90262h2.5078v-1.90262h.67935v4.53292h-.67935v-2.02512Z"/><path class="cls-1" d="M98.05573,15.59752l-4.79621.2144,6.96743-1.14008-5.42464-3.14908,6.35744,2.57505-1.76317-3.53574,2.49263,3.24871.34013-7.11957.37743,7.11957,2.55549-3.24959-1.82599,3.53065,6.358-2.56908-5.42523,3.14908,6.92385,1.17197-4.62279-.22171c2.16532.39306,4.17593,1.08378,5.93569,2.0299.90334-1.65398,1.42627-3.54459,1.42627-5.56206,0-6.44134-5.22172-11.66306-11.66303-11.66306s-11.66306,5.22172-11.66306,11.66306c0,2.00942.51826,3.89333,1.41496,5.5426,1.78778-.95591,3.83292-1.64892,6.0348-2.03502Z"/><path class="cls-2" d="M92.31178,18.13443c.75682-.4024,1.56706-.76054,2.42488-1.06721.01517-.00544.02975-.01145.04495-.01686.28731-.10192.57915-.19863.8764-.28893.00102-.00032.00197-.00067.00299-.00098l-.00004.00004c2.00949-.61006,4.23771-.95043,6.58456-.95043,2.35826,0,4.59635.34413,6.6135.95981h0c.00011.00004.00014.00004.00025.00007.29851.0911.59155.18873.87999.29156.01489.00534.02929.0112.04418.01658.86056.30919,1.67305.67018,2.43152,1.07581.10076-.16478.19804-.33195.29082-.50189-1.75976-.94611-3.77038-1.63684-5.93569-2.0299l4.62279.22171-6.92385-1.17197,5.42523-3.14908-6.358,2.56908,1.82599-3.53065-2.55549,3.24959-.37743-7.11957-.34013,7.11957-2.49263-3.24871,1.76317,3.53574-6.35744-2.57505,5.42464,3.14908-6.96743,1.14008,4.79621-.2144c-2.20188.3861-4.24702,1.07911-6.0348,2.03502.09247.17015.19042.3369.29086.50189Z"/><path class="cls-3" d="M115.20663,20.2421c-2.92526-2.68684-7.64014-4.43202-12.96111-4.43202s-10.03577,1.74519-12.96104,4.43199c1.15314-.4261,2.40192-.78962,3.71412-1.09706,2.1296,2.79631,5.48416,4.60797,9.27042,4.60797,3.78197,0,7.13316-1.80766,9.26308-4.5986,1.29752.30561,2.53302.6659,3.67454,1.08772Z"/><path class="cls-3" d="M173.34633,2.68891c1.03026,1.02564.69839,2.75083-.61863,3.34069-1.66262.74464-3.4372-.8818-2.7963-2.60005.52262-1.40113,2.3518-1.799,3.41493-.74064ZM171.75364,2.43071c-1.53293.11349-2.1701,2.01548-.99119,3.0322.81432.70228,2.10642.45455,2.62707-.4764.66865-1.19559-.28254-2.65599-1.63588-2.55579Z"/><path class="cls-3" d="M171.0447,3.05872l1.14666-.00596c.57326.03979.79687.73468.32439,1.08451-.10174.07533-.32475.132-.35479.14171.2035.09154.33085.29546.45141.4747.10996.16348.20899.33701.30895.5067h-.42316c-.14363-.27592-.28298-.54116-.47289-.76301-.06771-.0791-.20316-.18144-.3121-.18144h-.30051v.94445h-.36797v-2.20166ZM171.41266,4.0093h.64927c.46783-.00958.45264-.65557-.00532-.66234h-.64394v.66234Z"/></svg>