<svg xmlns="http://www.w3.org/2000/svg" xmlns:xlink="http://www.w3.org/1999/xlink" id="Layer_1" version="1.1" viewBox="0 0 680 115.65">
  <defs>
    <style>
      .st0 {
        fill: url(#linear-gradient);
      }
    </style>
    <linearGradient id="linear-gradient" x1="0" y1="57.82" x2="680" y2="57.82" gradientUnits="userSpaceOnUse">
      <stop offset="0" stop-color="#4632ff"></stop>
      <stop offset="1" stop-color="#0af"></stop>
    </linearGradient>
  </defs>
  <path class="st0" d="M5.32,0C1.96,0,0,1.97,0,5.32v28.68c0,3.35,1.85,5.32,5.32,5.32h39.78c6.01,0,9.25,3.24,9.25,9.25v67.07h53.2V48.57c0-6.01,3.24-9.25,9.25-9.25h39.78c3.35,0,5.32-1.97,5.32-5.32V5.32c0-3.35-1.96-5.32-5.32-5.32H5.32ZM178.32,0c-3.35,0-5.32,1.97-5.32,5.32v28.68c0,3.35,1.85,5.32,5.32,5.32h39.78c6.01,0,9.25,3.24,9.25,9.25v67.07h53.2V48.57c0-6.01,3.24-9.25,9.25-9.25h39.78c3.35,0,5.32-1.97,5.32-5.32V5.32c0-3.35-1.96-5.32-5.32-5.32h-151.27ZM351.79,0c-3.35,0-5.32,1.85-5.32,5.32v63.83c0,30.07,19.2,46.49,53.2,46.49h101.77v-38.16h-96.22c-3.7,0-5.78-1.85-5.78-5.21s2.08-5.2,5.78-5.2h85.92v-19.08h-85.92c-3.7,0-5.78-1.73-5.78-4.97s2.08-4.86,5.78-4.86h95.75V0h-149.18ZM566.66,38.16h50.42c5.55,0,9.95,2.78,9.95,8.33s-4.39,8.33-9.95,8.33h-50.42v-16.65ZM518.79,0c-3.35,0-5.32,1.85-5.32,5.32v110.33h53.19v-22.67h58.75c34,0,54.58-19.89,54.58-46.49S659.41,0,625.41,0h-106.63Z"></path>
</svg>